<svg xmlns="http://www.w3.org/2000/svg" viewBox="0 0 128 128">
    <defs>
        <style>.cls-1{fill:#4486ec;}</style>
    </defs>
    <g id="view_1" data-name="view-2">
        <g id="view_1-2" data-name="view-1">
            <path class="cls-1" d="M128,3.09h0C128,1.39,126.35,0,124.31,0H103a3.08,3.08,0,0,0-3.31,3.09h0A3.08,3.08,0,0,0,103,6.19h21.28C126.35,6.19,128,4.8,128,3.09Z"/>
            <polygon class="cls-1" points="127.9 58.64 128 58.64 128 57.94 127.9 58.64"/>
            <path class="cls-1" d="M103.41,93h20.9c2,0,3.69-1.39,3.69-3.09v-20c0-1.71-1.65-3.09-3.69-3.09h-20.9c-2,0-3.69,1.39-3.69,3.09v20C99.72,91.63,101.37,93,103.41,93Z"/>
            <path class="cls-1" d="M0,86.84v38.07C0,126.61,1.65,128,3.69,128H72.51c2,0,3.69-1.39,3.69-3.09V104.26c0-1.71-1.65-3.09-3.69-3.09h-34c-2,0-3.69-1.39-3.69-3.09v-2c0-1.71,1.65-3.09,3.69-3.09h34c2,0,3.69-1.39,3.69-3.09v-20c0-1.71-1.65-3.09-3.69-3.09h-34c-2,0-3.69-1.39-3.69-3.09v-2c0-1.71,1.65-3.09,3.69-3.09h5.37c2.21,0,3.93-1.62,3.67-3.46L43.45,26.43C43.19,24.59,44.91,23,47.12,23H62a3.53,3.53,0,0,1,3.66,2.72l4.45,30.24a3.53,3.53,0,0,0,3.66,2.72h28.25a3.53,3.53,0,0,0,3.67-2.73L110,25.7A3.53,3.53,0,0,1,113.69,23h10.62c2,0,3.69-1.39,3.69-3.09V17.43c0-1.71-1.65-3.09-3.69-3.09H38.49c-2,0-3.69-1.39-3.69-3.09v-2c0-1.71,1.65-3.09,3.69-3.09H73.09c2,0,3.69-1.39,3.69-3.09h0C76.78,1.39,75.13,0,73.09,0H3.69C1.65,0,0,1.39,0,3.09H0C0,4.8,1.65,6.19,3.69,6.19H22c2,0,3.69,1.39,3.69,3.09v2C25.66,13,24,14.34,22,14.34H3.69c-2,0-3.69,1.39-3.69,3.09V36.82c0,1.71,1.65,3.09,3.69,3.09H22c2,0,3.69,1.39,3.69,3.09v2c0,1.71-1.65,3.09-3.69,3.09H3.69c-2,0-3.69,1.39-3.69,3.09v21.5c0,1.71,1.65,3.09,3.69,3.09H22c2,0,3.69,1.39,3.69,3.09v1.8c0,1.71-1.65,3.09-3.69,3.09H3.69C1.65,83.74,0,85.13,0,86.84Z"/>
            <path class="cls-1" d="M99.72,104.26v20.65c0,1.71,1.65,3.09,3.69,3.09h20.9c2,0,3.69-1.39,3.69-3.09V104.26c0-1.71-1.65-3.09-3.69-3.09h-20.9C101.37,101.16,99.72,102.55,99.72,104.26Z"/>
        </g>
    </g>
</svg>
